<?xml version="1.0" encoding="UTF-8" standalone="no"?>
<svg
   preserveAspectRatio="xMidYMid"
   width="443"
   height="443"
   viewBox="0 0 443 443"
   version="1.1"
   id="svg6"
   sodipodi:docname="logo.svg"
   xml:space="preserve"
   inkscape:version="1.3.2 (091e20e, 2023-11-25)"
   xmlns:inkscape="http://www.inkscape.org/namespaces/inkscape"
   xmlns:sodipodi="http://sodipodi.sourceforge.net/DTD/sodipodi-0.dtd"
   xmlns="http://www.w3.org/2000/svg"
   xmlns:svg="http://www.w3.org/2000/svg"><sodipodi:namedview
     id="namedview6"
     pagecolor="#ffffff"
     bordercolor="#000000"
     borderopacity="0.25"
     inkscape:showpageshadow="2"
     inkscape:pageopacity="0.0"
     inkscape:pagecheckerboard="0"
     inkscape:deskcolor="#d1d1d1"
     inkscape:zoom="0.9503386"
     inkscape:cx="355.66271"
     inkscape:cy="461.41449"
     inkscape:window-width="2008"
     inkscape:window-height="1212"
     inkscape:window-x="0"
     inkscape:window-y="25"
     inkscape:window-maximized="0"
     inkscape:current-layer="g7" /><defs
     id="defs1"><style
       id="style1">
      .cls-1, .cls-4 {
        fill: #fff;
      }

      .cls-1, .cls-2, .cls-3 {
        fill-rule: evenodd;
      }

      .cls-2 {
        fill: #000;
      }

      .cls-3 {
        fill: #fa0000;
      }
    </style></defs><g
     id="g7"
     transform="matrix(15.678148,0,0,15.678148,33.362224,33.362224)"
     style="stroke-width:0.063783"><path
       d="M 12,5.1171875 A 6.88235,6.88235 0 0 0 5.1171875,12 6.88235,6.88235 0 0 0 12,18.882812 6.88235,6.88235 0 0 0 18.882812,12 6.88235,6.88235 0 0 0 12,5.1171875 Z M 11.93164,7.3652344 A 4.7018013,4.7018013 0 0 1 16.634765,12.068359 4.7018013,4.7018013 0 0 1 11.93164,16.769531 4.7018013,4.7018013 0 0 1 7.2304678,12.068359 4.7018013,4.7018013 0 0 1 11.93164,7.3652344 Z"
       id="path1-3"
       style="stroke-width:0.063783;fill:#f1b044;fill-opacity:1" /><path
       d="M 4.8691406,0 C 2.1717704,0 0,2.1717704 0,4.8691406 V 19.130859 C 0,21.82823 2.1717704,24 4.8691406,24 H 19.130859 C 21.82823,24 24,21.82823 24,19.130859 V 15.255132 4.8691406 C 24,2.1717704 21.82823,0 19.130859,0 Z m 7.1406254,4.109375 c 4.364293,1.22e-4 7.902222,3.5380506 7.902343,7.902344 -1.22e-4,4.364293 -3.53805,7.902221 -7.902343,7.902343 C 7.6454726,19.913941 4.1075439,16.376012 4.1074219,12.011719 4.1075434,7.6474252 7.6454722,4.1094964 12.009766,4.109375 Z"
       id="path2-8"
       style="stroke-width:0.063783;fill:#f1b044;fill-opacity:1"
       sodipodi:nodetypes="sssssscsssccccc" /></g></svg>
